<?xml version="1.0" standalone="no"?>
<!DOCTYPE svg PUBLIC "-//W3C//DTD SVG 20010904//EN"
 "http://www.w3.org/TR/2001/REC-SVG-20010904/DTD/svg10.dtd">
<svg version="1.0" xmlns="http://www.w3.org/2000/svg"
 width="512.000000pt" height="512.000000pt" viewBox="0 0 512.000000 512.000000"
 preserveAspectRatio="xMidYMid meet">
<metadata>
Created by potrace 1.14, written by Peter Selinger 2001-2017
</metadata>
<g transform="translate(0.000000,512.000000) scale(0.100000,-0.100000)"
fill="#000000" stroke="none">
<path d="M3125 4881 c-72 -26 -179 -78 -261 -128 -72 -44 -98 -51 -109 -33
-16 25 -125 88 -174 100 -70 16 -150 16 -181 0 -56 -30 -133 -116 -171 -193
-22 -43 -45 -79 -52 -81 -7 -2 -48 -11 -92 -21 -123 -27 -222 -54 -318 -87
l-88 -31 -87 26 c-104 32 -261 50 -375 46 -140 -6 -185 -51 -226 -221 -39
-161 -18 -298 76 -485 20 -40 19 -76 -2 -127 -47 -112 -63 -377 -29 -493 7
-24 -22 -48 -70 -57 -44 -8 -159 -48 -184 -64 -12 -8 -22 -24 -22 -38 0 -19 5
-24 28 -24 15 0 47 6 72 14 175 56 190 57 212 14 19 -37 78 -169 78 -174 0 -2
-24 -16 -52 -30 -29 -15 -65 -35 -81 -46 -31 -22 -37 -58 -9 -58 24 0 104 25
142 45 l31 16 80 -77 c70 -69 94 -104 71 -104 -4 0 -24 -16 -44 -35 l-36 -35
-50 34 c-61 41 -145 55 -211 35 -84 -25 -162 -148 -148 -231 6 -30 2 -36 -37
-65 -48 -35 -73 -80 -82 -145 -7 -53 18 -112 74 -171 42 -43 134 -77 211 -77
54 0 235 45 269 66 21 14 28 13 80 -12 31 -14 83 -37 114 -49 59 -24 71 -29
218 -93 l85 -38 1 -40 c3 -102 26 -156 98 -232 31 -32 56 -48 104 -62 81 -25
128 -25 199 0 32 11 61 20 65 20 4 0 8 -15 8 -33 0 -52 65 -367 95 -457 24
-75 30 -80 90 -80 l53 0 7 -77 c7 -96 27 -141 100 -226 77 -91 98 -101 215
-101 91 1 100 3 219 52 68 28 141 63 163 78 49 35 170 162 237 251 65 86 147
253 157 318 4 28 9 55 9 60 1 6 3 24 3 41 1 16 8 38 15 48 12 16 21 10 97 -69
134 -138 263 -212 385 -222 67 -5 77 -3 121 23 118 68 129 79 177 176 69 144
80 203 67 351 -6 67 -19 151 -29 187 -31 109 -32 113 -8 141 12 14 46 54 75
88 77 92 80 87 -133 213 -71 42 -149 91 -172 107 -23 17 -47 31 -53 31 -5 0
-10 7 -10 15 0 8 9 15 20 15 30 0 91 33 122 67 35 37 78 120 78 149 0 17 7 25
28 30 110 27 192 133 192 249 0 83 -28 144 -100 217 -53 53 -77 69 -120 82
-29 9 -64 16 -77 16 -13 0 -45 10 -71 23 -39 18 -63 22 -147 21 -86 0 -201
-18 -258 -40 -13 -5 -15 0 -10 33 3 21 12 50 20 66 13 26 17 27 86 27 80 0
167 24 167 45 0 20 -64 35 -150 35 -41 0 -80 4 -87 8 -6 4 -14 51 -18 109 l-8
103 29 11 c16 6 67 15 114 19 47 4 102 15 123 24 34 14 37 18 27 36 -9 18 -21
20 -99 20 -48 0 -108 -6 -132 -13 -66 -20 -81 -10 -113 74 -16 41 -51 118 -79
172 l-51 97 17 53 c41 130 13 272 -70 348 -40 37 -46 49 -68 135 -29 116 -63
180 -135 256 l-56 58 -64 -1 c-36 0 -87 -8 -115 -18z m182 -126 c61 -71 122
-241 81 -228 -16 6 -117 -20 -195 -49 l-81 -30 -64 26 c-35 14 -81 26 -101 28
-21 1 -44 9 -51 18 -20 23 -39 78 -33 94 7 18 103 84 177 121 149 75 214 80
267 20z m-700 -53 c46 -24 144 -127 168 -178 26 -56 6 -66 -73 -39 -59 21
-106 11 -153 -32 -90 -82 -66 -214 47 -265 72 -31 55 -65 -56 -114 -30 -13
-67 -19 -116 -19 -85 0 -115 16 -154 86 -22 39 -25 55 -25 149 0 145 35 257
111 361 41 56 62 70 119 79 46 7 74 1 132 -28z m-462 -389 c0 -153 17 -207 90
-280 71 -70 139 -91 239 -74 38 6 100 27 139 46 l70 35 35 -32 c57 -49 128
-78 196 -78 59 0 60 0 122 -60 85 -81 155 -114 237 -108 82 5 148 38 220 110
32 32 63 58 67 58 23 0 110 -192 110 -241 0 -12 -10 -24 -27 -30 -132 -52
-151 -66 -133 -98 14 -26 41 -26 115 -1 36 12 62 17 68 11 5 -5 11 -47 14 -94
6 -93 10 -87 -65 -102 -37 -8 -59 -37 -39 -54 8 -6 31 -14 53 -19 37 -8 39
-10 36 -41 -2 -19 -11 -59 -21 -90 l-17 -56 -52 -5 c-28 -3 -57 -11 -63 -17
-16 -16 -7 -47 17 -57 20 -9 18 -14 -45 -93 -36 -45 -79 -101 -96 -124 -56
-78 -279 -191 -503 -254 -205 -57 -360 -77 -464 -60 -38 6 -63 3 -118 -15 -67
-21 -82 -22 -258 -17 -132 4 -212 12 -272 26 -106 24 -205 57 -248 84 l-33 20
35 29 c37 31 45 58 23 76 -10 8 -30 3 -79 -20 l-66 -30 -30 20 c-16 12 -46 42
-66 67 l-37 45 50 31 c28 18 51 38 51 45 0 26 -31 32 -87 17 -39 -10 -58 -11
-68 -3 -14 12 -60 111 -70 152 -6 25 -4 27 32 33 95 14 117 21 127 38 20 32
-17 48 -107 46 -43 -1 -80 1 -83 3 -14 15 -26 154 -21 243 8 119 34 232 82
351 40 101 42 119 15 134 -16 8 -26 7 -42 -5 -13 -8 -25 -15 -29 -15 -3 0 -19
28 -35 63 -27 58 -29 70 -29 192 0 116 3 136 24 183 15 34 34 58 52 67 62 33
297 8 446 -45 76 -28 87 -27 202 16 82 31 295 92 326 94 6 0 10 -45 10 -117z
m1318 93 c104 -44 126 -174 54 -328 -98 -213 -266 -280 -406 -162 -37 31 -38
44 -8 72 18 17 34 21 78 21 95 -1 147 40 156 124 6 55 -25 103 -90 137 -52 28
-78 73 -54 97 43 43 205 67 270 39z m-778 -6 c4 -6 0 -21 -8 -33 -8 -12 -19
-39 -26 -59 -14 -42 -25 -46 -53 -21 -25 22 -23 71 4 100 22 24 72 31 83 13z
m349 -24 c116 -68 104 -265 -22 -334 -100 -56 -236 -7 -271 97 -25 75 -11 154
37 205 66 70 169 83 256 32z m211 -202 c23 -24 15 -66 -17 -83 -15 -9 -30 -12
-34 -9 -8 8 17 108 27 108 4 0 15 -7 24 -16z m938 -1068 c65 -31 79 -43 106
-86 28 -47 28 -107 -2 -151 -26 -38 -79 -77 -116 -85 -67 -14 -71 -19 -71 -86
0 -70 -25 -127 -70 -160 -43 -31 -130 -44 -201 -29 -72 14 -78 11 -90 -54 -5
-25 -18 -60 -30 -77 -48 -67 -167 -87 -275 -47 -57 21 -134 81 -134 103 0 11
150 280 203 362 109 172 249 287 398 329 80 22 214 14 282 -19z m277 -152 c61
-125 -9 -254 -140 -258 l-45 -1 -11 -65 c-6 -36 -17 -75 -25 -88 -21 -33 -78
-70 -124 -78 l-40 -7 37 39 c47 47 66 87 75 154 7 48 11 54 39 64 51 18 118
65 141 99 31 46 45 117 33 170 -5 23 -10 46 -10 51 0 19 51 -39 70 -80z
m-1214 -421 c-13 -27 -29 -66 -35 -88 l-11 -40 63 -60 c34 -33 91 -76 127 -95
60 -32 72 -35 150 -35 140 0 198 33 255 145 23 45 25 46 62 42 27 -3 67 -25
138 -76 55 -39 171 -118 258 -175 86 -57 157 -110 157 -118 0 -21 -176 -192
-283 -274 -218 -169 -457 -313 -722 -434 -350 -160 -819 -332 -922 -338 l-48
-2 -27 105 c-30 116 -68 324 -68 376 0 25 9 43 40 74 64 65 140 160 186 231
145 227 179 421 101 578 l-24 47 119 22 c123 23 384 103 454 140 21 12 42 21
47 22 4 0 -3 -21 -17 -47z m-1743 -47 c40 -19 99 -44 132 -55 93 -31 284 -61
390 -61 52 0 95 -4 95 -8 0 -4 -19 -26 -41 -47 -23 -22 -72 -81 -110 -131 -48
-65 -76 -94 -96 -98 -15 -4 -44 -20 -64 -36 l-37 -29 -158 68 c-88 37 -171 74
-185 81 -21 9 -32 30 -54 94 -15 44 -38 99 -51 122 -13 22 -24 46 -24 52 0 13
99 82 118 82 8 0 46 -15 85 -34z m-365 -16 c50 -31 78 -67 122 -155 42 -86 67
-186 57 -226 -13 -51 -192 -119 -312 -119 -75 0 -140 30 -172 79 -46 69 -21
136 65 177 52 25 54 27 47 57 -22 104 -14 143 41 186 35 28 107 28 152 1z
m1379 -97 c16 -11 41 -44 57 -74 26 -51 28 -60 23 -144 -3 -69 -11 -108 -35
-168 -52 -135 -31 -137 -278 25 -247 162 -236 138 -119 255 97 97 174 136 262
131 44 -3 71 -10 90 -25z m-920 -361 c142 -62 153 -69 153 -94 0 -15 5 -39 10
-53 8 -21 8 -26 -2 -22 -75 32 -361 157 -367 162 -5 3 -2 23 7 45 12 28 22 38
32 34 8 -3 84 -35 167 -72z m550 -28 c331 -215 304 -194 288 -223 -25 -49
-142 -177 -191 -209 -87 -58 -187 -67 -271 -23 -86 43 -119 112 -110 229 5 62
2 82 -14 113 -23 47 -24 68 -1 95 23 29 54 44 91 44 23 0 34 7 48 30 10 17 23
28 30 26 7 -3 66 -40 130 -82z m2187 -297 c49 -168 42 -301 -21 -426 -28 -54
-50 -82 -82 -105 -39 -28 -50 -31 -116 -30 -100 0 -185 42 -276 135 -58 57
-90 104 -77 113 1 1 63 38 136 82 74 43 195 127 270 186 75 58 140 104 144
102 4 -2 14 -28 22 -57z m-873 -549 c-48 -245 -368 -544 -626 -584 -98 -15
-209 60 -233 159 -16 60 -15 149 1 169 6 9 77 38 157 63 210 69 477 169 593
224 56 27 106 45 111 40 5 -4 4 -34 -3 -71z"/>
<path d="M3070 3439 c-86 -32 -82 -202 5 -244 64 -30 123 10 132 88 12 105
-59 186 -137 156z"/>
<path d="M1680 3182 c-26 -26 -30 -38 -30 -82 0 -61 19 -111 51 -134 34 -23
83 -20 115 7 48 41 42 173 -10 216 -8 7 -33 15 -55 18 -35 5 -44 2 -71 -25z"/>
<path d="M2404 3085 c-50 -22 -74 -60 -74 -115 0 -42 4 -52 31 -74 39 -33 121
-39 196 -15 98 31 112 158 23 204 -36 19 -134 18 -176 0z m158 -77 c13 -22 9
-36 -18 -57 -46 -36 -144 -24 -144 17 0 29 24 53 60 61 39 8 90 -2 102 -21z"/>
</g>
</svg>
